#!OML:ASF F:\VICON\USERDATA\INSTALL\SteveWalk\SteveWalk.ASF
:FULLY-SPECIFIED
:DEGREES
288
root 0.205115 16.057 18.9341 17.3766 -5.09993 3.78874
lowerback -16.3819 0.205694 -7.33837
upperback -4.66084 1.55834 -1.93112
thorax 4.046 0.742927 2.40575
lowerneck -5.45513 -1.64954 -1.28359
upperneck 9.94558 -2.48879 3.70362
head 4.33176 -1.1001 1.34119
rclavicle 6.03808e-015 7.95139e-015
rhumerus -30.7729 3.62139 -86.5089
rradius 57.9082
rwrist -20.327
rhand -22.702 -32.5689
rfingers 7.12502
rthumb 3.73086 -62.516
lclavicle 6.03808e-015 7.95139e-015
lhumerus -72.8776 37.5116 28.0303
lradius 10.545
lwrist -54.3432
lhand -11.6109 -15.3292
lfingers 7.12502
lthumb 14.432 14.149
rfemur -20.8443 -3.17549 12.8566
rtibia 67.4235
rfoot 23.8676 16.2033
rtoes -7.33059
lfemur -43.4284 1.84621 -29.4776
ltibia 37.4098
lfoot -12.218 -4.02055
ltoes -2.32683
289
root 0.197111 16.0735 19.1165 17.242 -5.49301 4.21743
lowerback -16.0618 0.171987 -7.90687
upperback -4.64294 1.58286 -2.10094
thorax 3.87675 0.758533 2.54261
lowerneck -5.71934 -1.59762 -1.18731
upperneck 10.2482 -2.43311 3.66142
head 4.49044 -1.06553 1.31386
rclavicle -1.87976e-014 4.13472e-014
rhumerus -31.148 2.5794 -86.6075
rradius 56.1997
rwrist -17.4687
rhand -16.7117 -37.5416
rfingers 7.12502
rthumb 9.51356 -67.3068
lclavicle -1.87976e-014 4.13472e-014
lhumerus -70.0934 37.3268 31.6581
lradius 10.8324
lwrist -52.1912
lhand -11.6258 -15.3027
lfingers 7.12502
lthumb 14.4176 14.1765
rfemur -23.0156 -2.96144 12.4496
rtibia 69.7679
rfoot 21.6399 15.5417
rtoes -9.03839
lfemur -42.5594 1.98761 -29.9602
ltibia 37.4026
lfoot -12.9873 -3.61713
ltoes -2.71474
290
root 0.171457 16.0789 19.2689 17.0059 -5.79886 4.336
lowerback -15.0972 0.215255 -8.45207
upperback -4.76077 1.61454 -2.12686
thorax 3.21069 0.802589 2.80424
lowerneck -5.96793 -1.61915 -1.23889
upperneck 10.6229 -2.47709 3.73431
head 4.68212 -1.07964 1.34759
rclavicle -4.44159e-015 4.77083e-015
rhumerus -31.9402 2.72419 -87.3698
rradius 56.3262
rwrist -19.1547
rhand -13.3591 -55.1767
rfingers 7.12502
rthumb 12.7471 -84.7676
lclavicle -4.44159e-015 4.77083e-015
lhumerus -67.759 37.3191 34.2894
lradius 10.9774
lwrist -50.9343
lhand -11.8709 -15.5325
lfingers 7.12502
lthumb 14.1814 13.9634
rfemur -25.1981 -2.45134 12.6304
rtibia 71.878
rfoot 19.0397 14.5106
rtoes -9.77325
lfemur -41.7808 2.24671 -29.988
ltibia 37.3657
lfoot -13.457 -3.39338
ltoes -3.75752
291
root 0.199991 16.1161 19.525 17.2521 -4.74376 3.57186
lowerback -15.7813 0.0464017 -7.03479
upperback -4.7272 1.24485 -2.0116
thorax 3.69314 0.602148 2.08114
lowerneck -5.77166 -1.58692 -1.41281
upperneck 11.1533 -2.46736 4.03913
head 4.35009 -1.05152 1.33496
rclavicle -5.67779e-015 3.61788e-014
rhumerus -32.7229 2.04158 -87.6342
rradius 54.2596
rwrist -19.504
rhand -5.22722 -61.6683
rfingers 7.12502
rthumb 20.5751 90.5979
lclavicle -5.67779e-015 3.61788e-014
lhumerus -66.2633 37.7612 35.4747
lradius 10.9422
lwrist -51.3375
lhand -12.4422 -16.1604
lfingers 7.12502
lthumb 13.6308 13.3733
rfemur -26.3464 -3.34332 13.6798
rtibia 73.1052
rfoot 16.16 13.0005
rtoes -4.69041
lfemur -40.7854 1.96881 -29.2789
ltibia 37.28
lfoot -14.4589 -3.48562
ltoes -5.73204
292
root 0.217571 16.1528 19.7474 17.3731 -4.03516 3.0326
lowerback -16.0204 -0.0852345 -6.10127
upperback -4.80441 0.937905 -1.91447
thorax 3.78491 0.450708 1.60573
lowerneck -5.33562 -1.50766 -1.48308
upperneck 11.2845 -2.37427 4.16222
head 4.31623 -1.00573 1.39244
rclavicle -1.12438e-015 -6.36111e-015
rhumerus -33.5578 1.18734 -87.7333
rradius 52.1368
rwrist -19.6553
rhand 0.372683 -62.1041
rfingers 7.12502
rthumb 25.9473 90.3531
lclavicle -1.12438e-015 -6.36111e-015
lhumerus -64.0793 37.6106 37.8965
lradius 11.0424
lwrist -50.4567
lhand -13.0788 -16.8014
lfingers 7.12502
lthumb 13.0172 12.7725
rfemur -27.9316 -3.93776 14.5564
rtibia 74.2695
rfoot 13.1275 11.93
rtoes -1.39533
lfemur -39.8337 1.81693 -28.7426
ltibia 37.1619
lfoot -15.3173 -3.52549
ltoes -5.48057
293
root 0.219115 16.1818 19.945 17.3083 -3.97892 2.82376
lowerback -15.829 -0.0769773 -5.8326
upperback -4.8735 0.887141 -1.8984
thorax 3.61821 0.431407 1.46014
lowerneck -5.29793 -1.51222 -1.38446
upperneck 11.6465 -2.38942 4.04374
head 4.41832 -1.01203 1.33928
rclavicle 6.47293e-015 -3.57812e-015
rhumerus -34.3222 0.575583 -87.9771
rradius 49.3047
rwrist -18.6553
rhand -10.2165 -46.473
rfingers 7.12502
rthumb 15.7752 -75.8502
lclavicle 6.47293e-015 -3.57812e-015
lhumerus -61.5498 37.2741 40.8399
lradius 11.3784
lwrist -49.1417
lhand -13.2653 -16.9559
lfingers 7.12502
lthumb 12.8375 12.6293
rfemur -29.7683 -3.9532 15.0477
rtibia 75.3123
rfoot 9.80707 11.1061
rtoes -2.45924
lfemur -38.8444 2.02716 -28.5705
ltibia 37.0109
lfoot -15.9628 -3.49182
ltoes -5.01636
294
root 0.20981 16.2048 20.1272 17.4396 -4.09591 2.45022
lowerback -15.7946 -0.0437877 -5.64919
upperback -4.89424 0.891825 -1.75729
thorax 3.57889 0.435497 1.50627
lowerneck -5.40726 -1.56106 -1.29602
upperneck 11.9199 -2.44737 3.82716
head 4.51843 -1.04465 1.25409
rclavicle -1.61823e-014 3.22031e-014
rhumerus -34.6096 -0.0329243 -88.0752
rradius 46.6304
rwrist -18.0872
rhand -21.7199 -32.5434
rfingers 7.12502
rthumb 4.67923 -62.4717
lclavicle -1.61823e-014 3.22031e-014
lhumerus -57.8585 36.1043 45.5957
lradius 11.9393
lwrist -46.0481
lhand -12.566 -15.5207
lfingers 7.12502
lthumb 13.5115 14.0209
rfemur -31.8961 -3.66464 15.7558
rtibia 76.3063
rfoot 6.40291 10.2118
rtoes -5.89619
lfemur -38.1316 2.3443 -28.1837
ltibia 36.7821
lfoot -16.0935 -3.58607
ltoes -3.96253
295
root 0.210495 16.2317 20.3182 17.5005 -3.44172 1.91593
lowerback -15.7747 -0.183403 -5.04675
upperback -4.90321 0.605294 -1.57004
thorax 3.5851 0.294641 1.31194
lowerneck -5.22686 -1.55708 -1.21231
upperneck 12.1243 -2.44128 3.6927
head 4.54781 -1.0455 1.20054
rclavicle 9.31803e-015 -2.8625e-014
rhumerus -34.9813 -0.835299 -88.0767
rradius 44.1562
rwrist -17.5133
rhand -21.0472 -35.1884
rfingers 7.12502
rthumb 5.32876 -65.1014
lclavicle 9.31803e-015 -2.8625e-014
lhumerus -54.381 34.5489 50.0306
lradius 12.4794
lwrist -42.684
lhand -12.2595 -14.5917
lfingers 7.12502
lthumb 13.8069 14.9301
rfemur -33.4996 -4.01844 16.782
rtibia 76.9674
rfoot 3.65241 8.98046
rtoes -7.3594
lfemur -37.2334 2.36083 -27.562
ltibia 36.4767
lfoot -17.0572 -3.62888
ltoes -5.80818
296
root 0.222485 16.2531 20.5144 17.2955 -2.45811 1.94907
lowerback -15.4764 -0.433851 -4.78245
upperback -4.93438 0.215242 -1.55662
thorax 3.41748 0.1061 1.10524
lowerneck -4.98004 -1.55071 -1.25726
upperneck 12.485 -2.43798 3.66924
head 4.61663 -1.04621 1.20254
rclavicle -9.33356e-015 8.34896e-015
rhumerus -35.6465 -1.85144 -87.9472
rradius 41.761
rwrist -17.1085
rhand -21.5479 -35.1913
rfingers 7.12502
rthumb 4.84534 -65.1159
lclavicle -9.33356e-015 8.34896e-015
lhumerus -51.4963 32.7778 53.7919
lradius 13.0204
lwrist -39.8379
lhand -13.1936 -15.4036
lfingers 7.12502
lthumb 12.9065 14.1773
rfemur -34.6596 -4.90427 17.1535
rtibia 77.3403
rfoot 1.89573 8.0358
rtoes -6.64668
lfemur -35.9917 1.93486 -27.458
ltibia 36.1629
lfoot -17.4535 -4.0033
ltoes -6.00402
